<?xml version="1.0" standalone="no"?><!DOCTYPE svg PUBLIC "-//W3C//DTD SVG 1.1//EN" "http://www.w3.org/Graphics/SVG/1.1/DTD/svg11.dtd"><svg t="1557318300312" class="icon" style="" viewBox="0 0 1024 1024" version="1.1" xmlns="http://www.w3.org/2000/svg" p-id="1999" xmlns:xlink="http://www.w3.org/1999/xlink" width="20" height="20"><defs><style type="text/css"></style></defs><path d="M953.6 668.8l-4.8 64.8c1.6-9.6 3.2-33.6 4.8-64.8z m-4.8-388.8c0-115.2-93.6-208.8-208.8-208.8 0 0-115.2-10.4-229.6-10.4-114.4 0-228.8 10.4-228.8 10.4C166.4 71.2 72.8 164.8 72.8 280c0 0-10.4 114.4-10.4 228.8s10.4 229.6 10.4 229.6c0 115.2 93.6 208.8 208.8 208.8 0 0 114.4 10.4 229.6 10.4 114.4 0 229.6-10.4 229.6-10.4 93.6 0 173.6-62.4 199.2-147.2-1.6-0.8-19.2-8-20.8-9.6-97.6-42.4-194.4-85.6-291.2-129.6-14.4-6.4-22.4-4.8-32 7.2-20.8 25.6-44.8 48-71.2 67.2-73.6 53.6-155.2 72-244.8 50.4-5.6 0.8-9.6-0.8-13.6-4-1.6-0.8-3.2-0.8-5.6-1.6-4.8 0.8-8.8-0.8-11.2-4.8l-1.6-0.8c-57.6-23.2-92-72.8-90.4-130.4 1.6-61.6 37.6-112 93.6-131.2 24.8-11.2 50.4-14.4 76.8-14.4 80-1.6 156.8 16.8 232 44.8 14.4 5.6 23.2 4.8 29.6-11.2 9.6-24.8 20-48.8 30.4-72.8 8-18.4 4-24-16.8-24-93.6 0.8-187.2 0.8-280.8 0.8-11.2 0-22.4 1.6-22.4-16 0-16.8 9.6-16.8 21.6-16.8 37.6 0 75.2-1.6 112.8 0.8 22.4 0.8 28.8-4.8 28-27.2-2.4-36.8 2.4-31.2-30.4-31.2H285.6c-13.6 0-21.6-0.8-21.6-17.6s8-17.6 20.8-17.6c51.2 0 102.4-0.8 153.6 0 16.8 0 24-3.2 24-22.4 0-78.4 0.8-78.4 78.4-76 15.2 0.8 19.2 6.4 18.4 20-0.8 19.2 0.8 38.4-0.8 57.6-1.6 16 4.8 20.8 20 20 56.8-0.8 113.6 0 170.4-0.8 12.8 0 20.8 0.8 20.8 17.6s-8 17.6-20.8 17.6c-51.2-0.8-102.4 0-153.6 0-37.6 0-36.8 0-37.6 38.4 0 16 4.8 20 20.8 20 42.4-0.8 84.8 0.8 127.2-0.8 23.2-0.8 23.2 8.8 17.6 25.6-13.6 44.8-28 88.8-51.2 128.8-12 20-5.6 24 12.8 30.4 76.8 23.2 154.4 47.2 230.4 72.8 3.2 0.8 36 8 38.4 8.8 2.4-43.2 5.6-100.8 5.6-159.2 0-113.6-10.4-228.8-10.4-228.8z m-5.6 507.2c-0.8 2.4-1.6 5.6-2.4 8 0.8-2.4 1.6-4.8 2.4-8zM264.8 560.8c-1.6 0.8-3.2 0.8-4.8 1.6l-0.8 0.8-1.6-0.8-7.2 2.4c-4.8 2.4-8.8 4.8-13.6 7.2-8 7.2-17.6 14.4-24 22.4-36.8 44.8-17.6 107.2 40.8 132 9.6 4 19.2 8 28.8 11.2 2.4 0 4.8-0.8 7.2-0.8 100.8 15.2 173.6-32 235.2-104 6.4-7.2 16.8-15.2-0.8-23.2-82.4-36-167.2-63.2-259.2-48.8z" fill="#00A0EE" p-id="2000"></path></svg>